<?xml version="1.0" encoding="utf-8"?>
<!-- Generator: Adobe Illustrator 16.0.0, SVG Export Plug-In . SVG Version: 6.00 Build 0)  -->
<!DOCTYPE svg PUBLIC "-//W3C//DTD SVG 1.1//EN" "http://www.w3.org/Graphics/SVG/1.1/DTD/svg11.dtd">
<svg version="1.1" id="Layer_2" xmlns="http://www.w3.org/2000/svg" xmlns:xlink="http://www.w3.org/1999/xlink" x="0px" y="0px"
	 width="350px" height="350px" viewBox="0 0 350 350" enable-background="new 0 0 350 350" xml:space="preserve">
<path fill="none" stroke="#EF4223" stroke-width="5" stroke-miterlimit="10" d="M127.206,336.166c0,0-62.963-24.556-63.593-77.445
	s50.371-100.741,27.704-142.297c0,0,42.815,13.222,32.111,86.26c0,0,22.667-16.371,3.778-93.815
	c-11.963-44.703,52.259-95.703,52.259-95.703s-16.371,62.334-4.408,91.297c11.963,28.963,44.075,52.259,44.075,52.259
	s-5.667-46.592,41.556-72.408c0,0-18.889,51,15.111,109.556c34,58.555-6.926,125.294-45.963,137.887c0,0,36.519-29.592,1.26-79.963
	c0,0-18.26,41.555-37.148,38.407c-18.889-3.148,34.63-62.333,2.519-100.111c0,0-6.297,33.371-42.186,47.852
	C118.391,252.424,83.762,275.723,127.206,336.166z"/>
</svg>
